HIERARCHY
ROOT root     
{
	OFFSET 0.0000 0.0000 0.0000
	CHANNELS 6 Xposition Yposition Zposition Zrotation Yrotation Xrotation
	JOINT pelvis   
	{
		OFFSET 0.0000 0.0000 0.0000
		CHANNELS 3 Zrotation Yrotation Xrotation
		JOINT thorax   
		{
			OFFSET 0.0000 23.0750 -5.0000
			CHANNELS 3 Zrotation Yrotation Xrotation
			JOINT rclavicle
			{
				OFFSET 0.0000 28.0009 0.0000
				CHANNELS 3 Zrotation Yrotation Xrotation
				JOINT rhumerus 
				{
					OFFSET -18.5725 5.5939 0.0000
					CHANNELS 3 Zrotation Yrotation Xrotation
					JOINT rradius  
					{
						OFFSET -24.8459 0.0000 0.0000
						CHANNELS 3 Zrotation Yrotation Xrotation
						JOINT rhand    
						{
							OFFSET -24.5477 0.0000 0.0000
							CHANNELS 3 Zrotation Yrotation Xrotation
							End Site
							{
								OFFSET -8.1826 0.0000 0.0000
							}
						}
					}
				}
			}
			JOINT lclavicle
			{
				OFFSET 0.0000 28.0009 0.0000
				CHANNELS 3 Zrotation Yrotation Xrotation
				JOINT lhumerus 
				{
					OFFSET 18.5725 5.5939 0.0000
					CHANNELS 3 Zrotation Yrotation Xrotation
					JOINT lradius  
					{
						OFFSET 24.8459 0.0000 0.0000
						CHANNELS 3 Zrotation Yrotation Xrotation
						JOINT lhand    
						{
							OFFSET 24.5477 0.0000 0.0000
							CHANNELS 3 Zrotation Yrotation Xrotation
							End Site
							{
								OFFSET 8.1826 0.0000 0.0000
							}
						}
					}
				}
			}
			JOINT head     
			{
				OFFSET 0.0000 35.2030 0.0000
				CHANNELS 3 Zrotation Yrotation Xrotation
				End Site
				{
					OFFSET 0.0000 11.7343 0.0000
				}
			}
		}
		JOINT rfemur   
		{
			OFFSET -8.2817 0.0000 0.0000
			CHANNELS 3 Zrotation Yrotation Xrotation
			JOINT rtibia   
			{
				OFFSET 0.0000 -43.3627 0.0000
				CHANNELS 3 Zrotation Yrotation Xrotation
				JOINT rfoot    
				{
					OFFSET 0.0000 -38.2947 0.0000
					CHANNELS 3 Zrotation Yrotation Xrotation
					JOINT rtoes    
					{
						OFFSET 0.0000 0.0000 16.6054
						CHANNELS 3 Zrotation Yrotation Xrotation
						End Site
						{
							OFFSET 0.0000 0.0000 5.5351
						}
					}
				}
			}
		}
		JOINT lfemur   
		{
			OFFSET 8.2817 0.0000 0.0000
			CHANNELS 3 Zrotation Yrotation Xrotation
			JOINT ltibia   
			{
				OFFSET 0.0000 -43.3627 0.0000
				CHANNELS 3 Zrotation Yrotation Xrotation
				JOINT lfoot    
				{
					OFFSET 0.0000 -38.2947 0.0000
					CHANNELS 3 Zrotation Yrotation Xrotation
					JOINT ltoes    
					{
						OFFSET 0.0000 0.0000 16.6054
						CHANNELS 3 Zrotation Yrotation Xrotation
						End Site
						{
							OFFSET 0.0000 0.0000 5.5351
						}
					}
				}
			}
		}
	}
}
MOTION
Frames: 21
Frame Time: .0333333
47.665 72.333 4.9423 -116.032 86.3465 -91.4705 0 -0 0 -0.246107 7.44366 13.9571 9.40212 -13.8484 1.94996e-05 28.7703 3.75729 13.2175 -180 70.5975 -180 3.14195 4.58854 0.125901 -3.25418 22.1293 5.38497e-07 -49.9057 36.7782 28.2764 -180 -88.3186 180 -15.7081 -0.247495 0.0340991 9.75075 -10.3046 -11.9491 3.82022 -19.6672 -10.899 -0 -0 52.8981 2.37737e-08 -1.4314 -0.247697 0.00620013 -1.62159e-08 -89.4341 -9.27375 5.71612 -76.1701 -0 -0 43.0147 1.66388e-06 7.765 4.72037 0.642896 -3.65811e-06 -30.3091 
49.445 71.937 5.0448 -113.643 86.5148 -89.1038 0 -0 0 -1.47173 7.63747 13.0783 9.67359 -13.8685 3.73809e-05 29.8867 3.19285 14.0666 -180 70.5452 -180 3.40278 4.51717 0.134199 -3.64022 22.4379 -2.41752e-06 -49.8786 36.4233 27.2953 -180 -88.0844 180 -15.7313 -0.262704 0.0362995 10.0241 -10.317 -12.3615 3.25428 -19.2361 -10.0281 -0 -0 53.2416 1.99339e-07 -1.2887 2.073 -0.0466002 -2.04958e-07 -91.0529 -9.30734 6.07069 -77.0926 -0 -0 46.2703 -5.62569e-06 7.39411 6.01256 0.7788 4.41693e-06 -28.1424 
51.202 71.558 5.1371 -111.658 86.7158 -87.165 0 -0 0 -2.7141 7.79074 12.3251 10.0014 -13.8348 -3.97975e-05 31.0422 2.53144 14.8125 -180 70.4647 -180 3.52346 4.39828 0.135302 -4.15759 22.6484 -3.00622e-05 -49.9046 35.911 26.1216 -180 -87.856 180 -15.6929 -0.258498 0.0355999 10.2942 -10.3186 -12.9146 2.67262 -18.7923 -9.26957 -0 -0 53.726 -1.65034e-06 -1.22492 4.50692 -0.0963007 -1.11165e-06 -91.8259 -9.45943 6.43175 -77.9099 -0 -0 49.4459 -2.0338e-06 7.12287 6.91246 0.861609 -4.85742e-06 -25.6669 
52.931 71.203 5.2188 -109.973 86.963 -85.5541 0 -0 0 -3.94476 7.91905 11.7213 10.3837 -13.7659 4.5275e-05 32.2337 1.80519 15.4481 -180 70.3782 -180 3.51778 4.24974 0.130601 -4.79557 22.7667 1.37537e-05 -49.9951 35.1908 24.7889 -180 -87.6737 180 -15.5798 -0.244697 0.0335006 10.5429 -10.3168 -13.6018 2.09907 -18.316 -8.62903 -0 -0 54.3641 -4.57591e-07 -1.27881 6.93624 -0.154501 -4.02629e-07 -91.5464 -9.67884 6.77766 -78.5785 -0 -0 52.4773 -2.37461e-06 6.99437 7.35585 0.899902 4.72954e-06 -23.1789 
54.626 70.875 5.2891 -108.567 87.2292 -84.2554 0 -0 0 -5.15143 8.0258 11.278 10.8129 -13.6595 3.42903e-05 33.4774 1.03346 15.9726 -180 70.3112 -180 3.41739 4.0987 0.122299 -5.55392 22.7981 2.08632e-05 -50.1469 34.2514 23.3133 -180 -87.5957 180 -15.3924 -0.217904 0.0294001 10.7562 -10.3041 -14.4015 1.54871 -17.802 -8.12102 -0 -0 55.1761 3.42988e-06 -1.47906 9.23259 -0.237397 -4.47595e-07 -90.1644 -9.92296 7.08604 -79.0735 -0 -0 55.329 -6.69865e-06 7.03262 7.31578 0.899992 5.55414e-06 -20.9298 
56.284 70.579 5.3465 -107.289 87.5085 -83.1142 0 -0 0 -6.33393 8.1025 10.9873 11.2739 -13.4955 -2.30801e-05 34.8074 0.224232 16.3868 -180 70.2935 -180 3.26296 3.97095 0.113099 -6.4623 22.7234 1.82194e-05 -50.3272 33.137 21.6783 -180 -87.5763 180 -15.146 -0.161999 0.0214989 10.9224 -10.2584 -15.2822 1.02641 -17.2493 -7.76945 -0 -0 56.19 3.83554e-06 -1.83751 11.2795 -0.359495 3.08194e-06 -87.7153 -10.1583 7.33632 -79.3738 -0 -0 57.9739 -1.00578e-06 7.24088 6.78857 0.860415 -3.93244e-06 -18.9604 
57.899 70.317 5.3921 -105.88 87.8305 -81.871 0 -0 0 -7.46663 8.16203 10.8509 11.7511 -13.2947 6.94706e-06 36.2422 -0.57861 16.6943 -180 70.3738 -180 3.0974 3.89362 0.1053 -7.48413 22.565 2.26259e-05 -50.5411 31.8029 19.9459 -180 -87.599 180 -14.8478 -0.0842999 0.011 11.0216 -10.1806 -16.2104 0.555128 -16.6552 -7.58441 -0 -0 57.4186 -1.69448e-06 -2.38889 12.9311 -0.534901 -4.76838e-06 -84.3346 -10.3497 7.52199 -79.4731 -0 -0 60.3993 7.96323e-07 7.60277 5.81611 0.774899 -6.37381e-06 -17.4014 
59.47 70.091 5.4265 -104.111 88.1178 -80.291 0 -0 0 -8.54524 8.19714 10.8503 12.226 -13.0534 -3.97028e-05 37.8144 -1.35283 16.8996 -180 70.5931 -180 2.96157 3.88627 0.100499 -8.60999 22.3312 -1.08523e-05 -50.7725 30.264 18.1307 -180 -87.7402 180 -14.5096 0.0219993 -0.00280055 11.0421 -10.0519 -17.142 0.142232 -16.0268 -7.58795 -0 -0 58.88 9.23736e-06 -3.13905 14.0966 -0.765296 -2.73759e-06 -80.2506 -10.4765 7.63434 -79.3779 -0 -0 62.598 4.33613e-06 8.09375 4.46437 0.634207 -8.3881e-07 -16.2454 
60.993 69.903 5.4521 -101.386 88.4424 -77.7695 0 -0 0 -9.56069 8.20587 10.965 12.6797 -12.7818 4.64275e-05 39.5492 -2.0655 17.0063 -180 70.9939 -180 2.888 3.96086 0.0998981 -9.80537 22.0456 4.58497e-05 -51.021 28.5074 16.2791 -180 -87.9606 180 -14.1467 0.155303 -0.0192999 10.9756 -9.8629 -18.0394 -0.200854 -15.3724 -7.79676 -0 -0 60.5715 -1.63571e-05 -4.08962 14.7209 -1.0408 -7.11751e-06 -75.7741 -10.5226 7.67249 -79.1013 -0 -0 64.5664 -1.4673e-06 8.68188 2.82859 0.431694 1.29679e-06 -15.494 
62.464 69.752 5.4705 -96.9895 88.738 -73.5748 0 -0 0 -10.518 8.16914 11.1591 13.0971 -12.4667 2.68636e-05 41.4686 -2.70708 17.0212 -180 71.609 -180 2.88992 4.11216 0.103799 -11.0805 21.6873 3.42827e-07 -51.2582 26.6046 14.368 -180 -88.2473 180 -13.7762 0.329002 -0.0396996 10.8188 -9.59271 -18.8559 -0.473558 -14.7111 -8.23448 -0 -0 62.4982 -1.63134e-05 -5.21485 14.7744 -1.33331 9.80904e-07 -71.0138 -10.4879 7.63573 -78.6727 -0 -0 66.3043 -5.46583e-07 9.33544 1.02601 0.168699 -6.73478e-07 -15.1578 
63.88 69.639 5.4861 -89.6029 88.9499 -66.3732 0 -0 0 -11.4083 8.08866 11.4095 13.4699 -12.1303 -3.84984e-05 43.5755 -3.24343 16.9483 -180 72.4753 -180 2.96626 4.33297 0.112198 -12.3686 21.3019 -6.72787e-05 -51.5094 24.5149 12.4616 -180 -88.619 180 -13.4048 0.529201 -0.062198 10.5716 -9.24252 -19.56 -0.664566 -14.0473 -8.91034 -0 -0 64.6348 -7.92968e-06 -6.49303 14.2807 -1.6081 -7.36365e-07 -66.2685 -10.3718 7.53682 -78.1274 -0 -0 67.8211 9.91341e-08 10.0205 -0.824708 -0.145705 -6.48061e-07 -15.2283 
65.239 69.561 5.5026 -77.2521 89.168 -54.1825 0 -0 0 -12.2403 7.95 11.6811 13.7926 -11.7734 5.98731e-06 45.8583 -3.66362 16.7947 -180 73.6066 -180 3.09232 4.6034 0.124301 -13.6443 20.8974 -0.000107458 -51.7739 22.2654 10.5702 -180 -89.1598 180 -13.0375 0.755797 -0.0863985 10.2422 -8.80294 -20.1244 -0.774918 -13.3963 -9.83722 -0 -0 66.9558 -2.23388e-05 -7.87877 13.2849 -1.82131 -1.714e-05 -61.6543 -10.189 7.39004 -77.5077 -0 -0 69.1308 4.74137e-06 10.7062 -2.61055 -0.493399 -1.85421e-06 -15.6758 
66.539 69.518 5.5236 -58.9995 89.3398 -36.0627 0 -0 0 -13.0155 7.74536 11.9486 14.069 -11.4014 -0.000103838 48.2949 -3.96316 16.5729 -180 75.0046 -180 3.22357 4.89845 0.137898 -14.8803 20.4724 -3.74899e-05 -52.0574 19.8936 8.69841 -180 -89.715 180 -12.677 1.00231 -0.111298 9.84044 -8.27457 -20.5262 -0.805363 -12.7687 -11.0198 -0 -0 69.4309 -2.94531e-05 -9.31952 11.8472 -1.92962 -1.15021e-05 -57.154 -9.9581 7.21774 -76.8543 -0 -0 70.2556 -7.8056e-07 11.3638 -4.24239 -0.851801 3.23515e-06 -16.4307 
67.779 69.506 5.5527 -39.019 89.2579 -16.1255 0 -0 0 -13.7405 7.47142 12.19 14.3055 -11.0274 7.17753e-06 50.8412 -4.1333 16.296 -180 76.6722 -180 3.3041 5.20131 0.150095 -16.0288 20.0655 7.69923e-06 -52.3813 17.3793 6.88965 4.28709e-05 -89.6746 -4.25863e-05 -12.317 1.2577 -0.135703 9.38132 -7.66421 -20.758 -0.75935 -12.1722 -12.4559 -0 -0 72.015 -4.2691e-06 -10.7616 10.0486 -1.89939 -1.22613e-05 -52.8028 -9.7008 7.04766 -76.2039 -0 -0 71.2176 -2.03477e-05 11.9688 -5.66458 -1.19867 9.18658e-06 -17.3836 
68.959 69.524 5.5927 -23.3492 89.1813 -0.475834 0 -0 0 -14.4218 7.11593 12.3846 14.5119 -10.6301 4.13431e-05 53.4486 -4.20299 15.9803 -180 78.5747 -180 3.25941 5.47813 0.156 -17.102 19.6051 -0.000107033 -52.7336 14.8631 5.07278 1.42284e-05 -88.9037 -1.39563e-05 -11.9493 1.5164 -0.158703 8.88045 -6.97118 -20.8089 -0.643248 -11.6151 -14.1386 -0 -0 74.665 5.3985e-06 -12.1472 7.97448 -1.71045 -2.14209e-05 -48.4807 -9.4411 6.90747 -75.5854 -0 -0 72.0385 3.53954e-05 12.4985 -6.85005 -1.51448 1.36077e-06 -18.44 
70.082 69.567 5.6463 -13.882 89.0073 9.04184 0 -0 0 -15.0572 6.68968 12.5346 14.7011 -10.2348 1.72849e-05 56.054 -4.16851 15.6499 -180 80.6837 -180 3.03399 5.73295 0.151998 -18.0408 19.1497 -0.000134182 -53.143 12.2843 3.32715 0 -88.0983 0 -11.563 1.76185 -0.178402 8.35315 -6.21835 -20.6889 -0.459755 -11.0971 -16.0483 -0 -0 77.3322 1.53913e-05 -13.4282 5.7214 -1.36351 -2.33709e-06 -44.2101 -9.19433 6.82487 -75.0178 -0 -0 72.7465 -2.30376e-05 12.941 -7.814 -1.7894 2.14745e-06 -19.471 
71.151 69.633 5.715 -9.03637 88.8443 13.9731 0 -0 0 -15.6458 6.19359 12.6391 14.8811 -9.83284 -2.34323e-05 58.5944 -4.05762 15.3279 -180 82.9661 -180 2.57589 5.95859 0.134098 -18.8394 18.6654 -0.000138079 -53.6081 9.72044 1.63205 1.13903e-05 -87.2621 -1.16388e-05 -11.1485 1.98421 -0.193705 7.81334 -5.41832 -20.4085 -0.213519 -10.6177 -18.1606 -0 -0 79.9705 4.35108e-06 -14.5643 3.38545 -0.879005 -5.69577e-06 -39.9781 -8.97516 6.8236 -74.5047 -0 -0 73.3608 -1.59846e-05 13.2839 -8.5894 -2.01954 -1.28645e-05 -20.4143 
72.173 69.717 5.7997 -7.129 88.6282 16.0227 0 -0 0 -16.1846 5.63482 12.7112 15.0562 -9.42502 -5.79019e-05 61.009 -3.89145 15.0414 -180 85.3717 -180 1.85974 6.16086 0.100102 -19.4822 18.1485 0.000148843 -54.1275 7.20187 0.00324122 0 -86.4311 -0 -10.6958 2.17326 -0.203504 7.27251 -4.58917 -19.9812 0.0927634 -10.1738 -20.446 -0 -0 82.5278 5.29467e-06 -15.5226 1.06208 -0.295002 -5.67916e-08 -35.8378 -8.79079 6.92032 -74.0421 -0 -0 73.9001 -3.313e-05 13.5259 -9.22649 -2.20876 2.15742e-05 -21.234 
73.156 69.816 5.9005 -7.02444 88.4482 16.2783 0 -0 0 -16.6646 5.0229 12.7699 15.2281 -9.01074 -2.02391e-05 63.2427 -3.69305 14.8148 -180 87.8437 -180 0.891686 6.34894 0.0494991 -19.9652 17.5894 -5.61152e-06 -54.694 4.76474 -1.54792 2.68186e-06 -85.6162 -2.89545e-06 -10.2017 2.32184 -0.207301 6.73856 -3.74952 -19.4253 0.456966 -9.76061 -22.8646 -0 -0 84.9639 -3.47695e-06 -16.2864 -1.15968 0.338801 2.69147e-06 -31.9121 -8.64224 7.12348 -73.613 -0 -0 74.3793 -4.83988e-05 13.668 -9.78294 -2.36628 -8.61133e-06 -21.9304 
74.107 69.925 6.0165 -8.27931 88.2632 15.1815 0 -0 0 -17.0771 4.36832 12.8378 15.393 -8.58674 -1.70927e-05 65.2504 -3.48913 14.6694 -3.8418e-05 89.5552 -3.81646e-05 -0.288205 6.53109 -0.0164004 -20.2863 16.9647 0.000149135 -55.2949 2.45868 -3.01998 2.78822e-06 -84.8718 -3.04987e-06 -9.67014 2.42625 -0.205302 6.21503 -2.91821 -18.7594 0.877444 -9.37262 -25.3758 -0 -0 87.2335 7.33274e-06 -16.8469 -3.2042 0.969694 -2.10115e-06 -28.3502 -8.52488 7.4325 -73.1952 -0 -0 74.8083 6.80051e-05 13.7176 -10.3151 -2.50279 -7.97626e-06 -22.5193 
75.036 70.042 6.1464 -10.5139 88.1035 13.0826 0 -0 0 -17.4144 3.68151 12.9415 15.5443 -8.16002 2.51395e-05 66.9958 -3.29309 14.6284 -1.11579e-05 87.1156 -1.13579e-05 -1.61181 6.71288 -0.0945012 -20.4474 16.2936 -3.52335e-05 -55.9107 0.277086 -4.37654 0 -84.1968 0 -9.10794 2.48698 -0.198097 5.70449 -2.11153 -18.005 1.35116 -9.00685 -27.9361 -0 -0 89.3054 2.59377e-05 -17.2068 -5.0208 1.55243 1.8829e-05 -25.2724 -8.42893 7.83757 -72.7612 -0 -0 75.1944 6.47312e-05 13.6844 -10.8695 -2.62887 -2.94615e-06 -23.037 
